<?xml version="1.0" standalone="no"?>
<!DOCTYPE svg PUBLIC "-//W3C//DTD SVG 20010904//EN"
 "http://www.w3.org/TR/2001/REC-SVG-20010904/DTD/svg10.dtd">
<svg version="1.0" xmlns="http://www.w3.org/2000/svg"
 width="100.000000pt" height="100.000000pt" viewBox="0 0 100.000000 100.000000"
 preserveAspectRatio="xMidYMid meet">

<g transform="translate(0.000000,100.000000) scale(0.100000,-0.100000)"
fill="#000000" stroke="none">
<path d="M0 500 l0 -500 230 0 230 0 0 34 c0 28 4 34 26 39 25 4 26 3 22 -34
l-4 -39 248 0 248 0 0 500 0 500 -500 0 -500 0 0 -500z m490 476 c0 -2 -9 -6
-20 -9 -11 -3 -18 -1 -14 4 5 9 34 13 34 5z m113 -13 c-7 -2 -19 -2 -25 0 -7
3 -2 5 12 5 14 0 19 -2 13 -5z m196 -87 c9 -11 9 -16 -1 -22 -7 -4 -10 -4 -6
1 4 4 3 14 -3 22 -6 7 -9 13 -6 13 2 0 10 -6 16 -14z m-655 -74 c3 -5 -1 -9
-9 -9 -8 0 -12 4 -9 9 3 4 7 8 9 8 2 0 6 -4 9 -8z m328 -36 c-13 -26 -24 -36
-47 -38 -20 -2 -29 -8 -28 -18 1 -8 -12 -24 -30 -35 -17 -11 -45 -42 -62 -69
-26 -42 -30 -59 -30 -115 1 -48 7 -77 23 -108 25 -48 86 -102 125 -110 28 -6
33 -18 18 -42 -12 -18 -45 -9 -101 28 -94 63 -143 183 -121 293 21 100 107
192 205 220 23 6 45 15 51 20 16 14 15 9 -3 -26z m157 -16 c77 -39 141 -128
156 -217 21 -126 -76 -278 -199 -312 -22 -6 -41 -9 -42 -8 -1 1 -4 11 -8 23
-5 17 0 23 31 32 21 6 55 25 76 43 117 97 109 270 -16 370 -40 31 -58 39 -96
41 -45 1 -45 1 -8 5 28 3 37 8 33 18 -4 12 6 22 27 24 4 1 25 -8 46 -19z
m-419 -66 c0 -8 -19 -13 -24 -6 -3 5 1 9 9 9 8 0 15 -2 15 -3z m-100 -24 c0
-5 -5 -10 -11 -10 -5 0 -7 5 -4 10 3 6 8 10 11 10 2 0 4 -4 4 -10z m867 -102
c-3 -8 -6 -5 -6 6 -1 11 2 17 5 13 3 -3 4 -12 1 -19z m-950 -10 c-3 -8 -6 -5
-6 6 -1 11 2 17 5 13 3 -3 4 -12 1 -19z m891 -76 c13 11 15 11 9 -4 -4 -11 0
-21 11 -27 16 -10 16 -10 -2 -11 -12 0 -16 -5 -12 -16 4 -12 2 -15 -9 -10 -10
3 -15 -1 -15 -12 -1 -16 -1 -16 -14 0 -10 14 -15 15 -26 5 -10 -10 -10 -8 -1
11 10 18 9 22 -5 22 -13 0 -14 3 -4 15 6 8 8 20 4 27 -6 11 -5 11 8 0 13 -10
17 -10 23 5 8 17 8 17 12 0 4 -15 7 -16 21 -5z m-787 -27 c9 6 11 3 6 -8 -4
-12 -1 -17 11 -17 16 -1 16 -1 0 -11 -11 -6 -15 -16 -11 -27 6 -15 5 -15 -10
-3 -15 12 -17 11 -17 -3 0 -13 -3 -14 -19 -4 -11 7 -17 16 -15 20 3 4 -2 8
-10 8 -9 0 -16 5 -16 10 0 6 7 10 16 10 14 0 15 2 3 17 -12 15 -12 16 3 10 10
-3 20 -1 24 5 4 7 9 6 14 -2 5 -7 13 -9 21 -5z m820 -118 c-10 -9 -11 -8 -5 6
3 10 9 15 12 12 3 -3 0 -11 -7 -18z m-136 -97 c-3 -5 -12 -10 -18 -10 -7 0 -6
4 3 10 19 12 23 12 15 0z m-595 -4 c0 -2 -7 -9 -15 -16 -13 -11 -14 -10 -9 4
5 14 24 23 24 12z m51 -23 c13 -16 12 -17 -3 -4 -10 7 -18 15 -18 17 0 8 8 3
21 -13z m224 -9 c9 3 14 -7 17 -30 3 -23 1 -31 -6 -24 -6 6 -18 10 -28 10 -13
0 -18 8 -18 28 0 33 13 52 18 27 2 -9 10 -14 17 -11z m286 -1 c13 -16 12 -17
-3 -4 -10 7 -18 15 -18 17 0 8 8 3 21 -13z m89 -16 c0 -2 -10 -12 -22 -23
l-23 -19 19 23 c18 21 26 27 26 19z m-310 -11 c0 -2 -9 -6 -20 -9 -11 -3 -18
-1 -14 4 5 9 34 13 34 5z m-65 -46 c8 -13 -14 -42 -26 -34 -5 3 -9 14 -9 25 0
20 24 26 35 9z"/>
</g>
</svg>
